<svg xmlns="http://www.w3.org/2000/svg" baseProfile="full" version="1.1" style="fill: none;" width="1425px" height="660px"><path style="stroke-width: 15px; stroke-linecap: round; stroke-linejoin: round; stroke: rgb(82, 61, 44); fill: none;" d=""/><path style="stroke-width: 15px; stroke-linecap: round; stroke-linejoin: round; stroke: rgb(137, 118, 104); fill: none;" d=""/><path style="stroke-width: 38px; stroke-linecap: butt; stroke-linejoin: round; stroke: rgb(196, 158, 84); fill: none;" d="M660,60 Z M660,645 L660,645 L660,60 M660,135 A195,105 0 0,1 465,240 A45,270 0 0,1 510,510 A225,150 0 0,1 285,360 M765,60 Z M765,645 L765,645 L765,60 M765,135 A195,105 0 0,0 960,240 A45,270 0 0,0 915,510 A225,150 0 0,0 1140,360 "/></svg>